<svg version="1.1" id="Layer_1" xmlns="http://www.w3.org/2000/svg" xmlns:xlink="http://www.w3.org/1999/xlink" x="0px" y="0px"
	 width="100%" viewBox="0 0 2048 2048" enable-background="new 0 0 2048 2048" xml:space="preserve">
<path fill="#000000" opacity="1.000000" stroke="none" 
	d="
M891.000000,2049.000000 
	C594.000000,2049.000000 297.500000,2049.000000 1.000000,2049.000000 
	C1.000000,1366.333374 1.000000,683.666687 1.000000,1.000000 
	C683.666687,1.000000 1366.333374,1.000000 2049.000000,1.000000 
	C2049.000000,683.666687 2049.000000,1366.333374 2049.000000,2049.000000 
	C1663.166626,2049.000000 1277.333374,2049.000000 891.000000,2049.000000 
M961.978271,515.463806 
	C960.297668,516.141296 958.478516,516.594543 956.959106,517.533081 
	C947.937500,523.105713 938.803955,528.524902 930.049561,534.496460 
	C914.462646,545.128784 903.319519,560.054138 893.438354,575.645813 
	C884.396667,589.912659 876.961365,605.204163 868.956909,620.118652 
	C865.305054,626.923035 862.197021,634.022644 858.463806,640.779175 
	C853.802429,649.215515 848.712097,657.413818 843.894043,665.765137 
	C842.614014,667.984009 841.799500,670.471802 840.514954,672.687500 
	C838.102905,676.848083 835.271118,680.778076 833.040344,685.027710 
	C830.109436,690.611267 827.890015,696.577881 824.825562,702.079529 
	C819.963501,710.808655 814.417542,719.158447 809.603394,727.912109 
	C804.933716,736.403015 801.053772,745.327454 796.405396,753.830994 
	C790.737488,764.199768 784.610168,774.316895 778.732239,784.571899 
	C777.819092,786.165161 777.175964,787.913147 776.407959,789.589600 
	C775.646667,789.015320 774.885376,788.441040 774.124084,787.866760 
	C773.585205,786.224121 773.077454,784.570557 772.502625,782.940552 
	C767.062439,767.514771 761.687439,752.065002 756.088806,736.696838 
	C755.123596,734.047241 755.584473,732.448669 757.593384,730.712585 
	C760.178589,728.478271 762.347839,725.735168 765.040222,723.656921 
	C779.066345,712.830811 779.254089,689.621460 771.609070,677.605591 
	C761.905945,662.354858 747.874084,656.179443 729.499573,659.682434 
	C711.230469,663.165344 699.936279,679.138855 698.852356,695.992554 
	C698.266052,705.108582 701.815552,713.097595 706.413696,720.635803 
	C708.507507,724.068542 708.718140,726.631714 704.758057,728.655945 
	C703.948425,729.069824 703.320129,729.896484 702.698303,730.611206 
	C690.929749,744.138550 679.127441,757.637024 667.448914,771.241699 
	C664.384399,774.811646 661.908508,778.890076 658.813171,782.429688 
	C654.286499,787.606201 649.295471,792.377380 644.780457,797.563354 
	C640.546509,802.426453 636.791382,807.704285 632.608154,812.614441 
	C628.734314,817.161438 624.481140,821.383667 620.558838,825.891357 
	C614.312988,833.069580 608.207336,840.369690 602.033997,847.611084 
	C598.540710,851.708618 595.061523,855.818909 591.520630,859.875061 
	C586.047485,866.144653 580.527649,872.373474 575.026184,878.618408 
	C573.032776,880.881226 571.053101,881.481567 568.075439,879.821045 
	C560.127747,875.388855 551.018066,875.475342 542.890686,877.302551 
	C531.491699,879.865356 522.625122,886.582703 516.912781,897.960327 
	C512.728516,906.294434 511.737030,914.418823 513.486633,922.748108 
	C517.200134,940.427612 528.930481,950.661133 546.591614,952.876282 
	C556.534912,954.123474 566.614258,953.234009 574.702637,945.266296 
	C576.723877,943.275208 580.245728,940.040710 584.085754,943.960449 
	C585.679260,945.587036 587.860657,946.641785 589.788391,947.936279 
	C603.327637,957.028198 616.930725,966.026611 630.392090,975.232422 
	C640.192932,981.934937 649.700012,989.070618 659.568787,995.668030 
	C662.729553,997.780945 662.203735,1000.045532 660.943665,1002.348877 
	C656.724731,1010.060852 652.141296,1017.573059 647.904663,1025.275757 
	C644.441345,1031.572754 641.411133,1038.108032 637.946899,1044.404541 
	C631.125854,1056.802124 624.072021,1069.071655 617.238525,1081.462769 
	C612.094299,1090.790894 607.177429,1100.244019 602.100220,1109.609497 
	C587.436401,1136.658569 572.731506,1163.685425 558.064758,1190.732910 
	C549.348572,1206.806763 540.675781,1222.904297 531.979736,1238.989136 
	C523.188110,1255.250366 514.272827,1271.446167 505.638275,1287.790527 
	C499.660065,1299.106812 494.284851,1310.743164 488.244751,1322.024780 
	C480.893158,1335.756104 473.048920,1349.222778 465.572571,1362.888550 
	C461.914612,1369.574829 458.761505,1376.537231 455.099884,1383.221313 
	C450.862000,1390.957275 446.094025,1398.406616 441.958954,1406.194336 
	C436.576294,1416.331787 431.486847,1426.629517 426.467072,1436.953613 
	C422.744171,1444.610229 419.207092,1452.363770 415.817871,1460.174316 
	C412.060486,1468.833008 418.454956,1484.055908 424.610931,1489.406738 
	C432.728729,1496.462524 442.201141,1499.141235 452.612671,1499.152344 
	C499.941956,1499.202759 547.274414,1499.461060 594.598206,1498.949829 
	C604.962830,1498.837891 615.525696,1496.742065 625.595825,1494.055298 
	C645.108582,1488.849487 660.459229,1476.768433 671.922913,1460.575073 
	C680.290894,1448.754639 686.928284,1435.674072 693.837646,1422.885376 
	C695.253479,1420.265015 696.656494,1419.846924 698.755249,1420.262573 
	C703.579285,1421.218140 708.346680,1422.463135 713.129944,1423.620117 
	C724.904724,1426.468384 736.606201,1429.674194 748.470032,1432.080933 
	C757.545166,1433.922119 758.500427,1434.410645 760.879700,1443.422852 
	C761.751892,1446.726685 762.828979,1450.212646 764.746643,1452.964844 
	C775.114746,1467.845703 789.327454,1473.955078 807.235046,1470.130127 
	C825.670898,1466.192261 841.179565,1447.213745 836.508423,1426.246948 
	C834.985291,1419.410278 831.447693,1413.022583 828.629395,1405.920532 
	C835.963562,1397.575684 843.727966,1388.541016 851.710327,1379.703247 
	C865.564331,1364.364258 879.532837,1349.128418 893.491760,1333.884521 
	C904.987732,1321.330200 916.615662,1308.895996 928.024963,1296.263916 
	C932.063721,1291.792358 935.342712,1286.623169 939.471008,1282.246338 
	C947.620056,1273.606689 956.230103,1265.403076 964.435547,1256.814819 
	C969.837280,1251.161011 974.768066,1245.059814 980.093079,1239.329346 
	C983.929382,1235.200928 986.140503,1235.582031 990.795593,1238.291016 
	C997.498657,1242.191528 1004.349182,1247.348755 1011.643860,1248.378662 
	C1023.417908,1250.041260 1035.765869,1249.943970 1047.557495,1248.316284 
	C1054.661743,1247.335571 1061.335693,1242.339722 1067.896118,1238.608643 
	C1072.997681,1235.707275 1075.318848,1235.451660 1079.413574,1239.841553 
	C1085.645996,1246.523315 1091.670776,1253.398315 1097.805664,1260.171509 
	C1107.551270,1270.931152 1117.274536,1281.711304 1127.082886,1292.413452 
	C1135.675171,1301.788696 1144.381836,1311.058960 1153.019165,1320.392944 
	C1162.603149,1330.749756 1172.125977,1341.163452 1181.746948,1351.485596 
	C1196.079468,1366.862915 1210.503906,1382.154419 1224.813843,1397.552612 
	C1227.115723,1400.029663 1229.208130,1402.755737 1231.012939,1405.609863 
	C1231.615356,1406.562256 1231.375732,1408.413940 1230.905884,1409.613770 
	C1228.890381,1414.761597 1226.461670,1419.750610 1224.520508,1424.923950 
	C1219.656372,1437.887817 1225.263184,1448.828735 1233.038574,1458.084106 
	C1249.633423,1477.838013 1279.796753,1474.788208 1294.290771,1454.892578 
	C1302.524292,1443.590576 1303.383057,1430.978394 1298.530151,1417.731201 
	C1296.411499,1411.947632 1292.397583,1408.023682 1288.057617,1404.345459 
	C1284.254395,1401.122314 1280.171753,1397.699341 1275.604004,1396.013794 
	C1264.609863,1391.956909 1253.652222,1392.669556 1243.243896,1398.737671 
	C1242.158691,1399.370728 1239.572144,1399.000244 1238.652832,1398.101929 
	C1230.126465,1389.770020 1221.509766,1381.495728 1213.499390,1372.677856 
	C1195.141357,1352.468994 1177.131348,1331.944580 1158.936035,1311.587646 
	C1149.715210,1301.271484 1140.481567,1290.964722 1131.105957,1280.789551 
	C1117.614746,1266.147705 1103.976929,1251.640991 1090.431274,1237.049072 
	C1087.818848,1234.234985 1085.342041,1231.295044 1083.325562,1229.006348 
	C1087.067749,1222.147095 1090.064941,1215.771484 1093.858398,1209.911377 
	C1099.280762,1201.535156 1100.741455,1192.237549 1101.079346,1182.684326 
	C1101.277100,1177.092773 1100.254761,1171.463257 1100.338867,1165.859131 
	C1100.362427,1164.287354 1102.030518,1161.908813 1103.508423,1161.322632 
	C1114.201782,1157.081665 1125.032349,1153.184814 1135.833862,1149.218384 
	C1155.552246,1141.977051 1175.252441,1134.682739 1195.054565,1127.677124 
	C1196.791138,1127.062866 1200.055054,1127.702393 1201.166626,1128.997925 
	C1203.782349,1132.046387 1205.692261,1135.755981 1207.589600,1139.355103 
	C1213.214355,1150.025024 1218.584473,1160.829834 1224.269531,1171.466797 
	C1228.245361,1178.905396 1232.675049,1186.100098 1236.723022,1193.501709 
	C1243.576538,1206.033569 1250.182007,1218.701904 1257.089722,1231.203613 
	C1264.069946,1243.836182 1271.433838,1256.257324 1278.375122,1268.910767 
	C1291.326660,1292.520020 1304.019531,1316.271118 1316.958984,1339.887085 
	C1329.832275,1363.382446 1342.885010,1386.779297 1355.841187,1410.229248 
	C1362.230957,1421.794312 1368.761108,1433.286499 1374.903931,1444.981934 
	C1382.920776,1460.245483 1394.066406,1472.695679 1408.080444,1482.551392 
	C1424.203003,1493.890015 1442.489990,1498.971436 1461.971191,1499.088013 
	C1507.299072,1499.359253 1552.630127,1499.089355 1597.958862,1499.257812 
	C1605.545654,1499.286011 1612.806519,1498.296509 1619.417603,1494.751709 
	C1629.435913,1489.379761 1635.059204,1480.853760 1636.207275,1469.394531 
	C1637.104370,1460.439209 1634.555542,1452.368408 1630.335571,1444.700806 
	C1626.756592,1438.197876 1622.798462,1431.898926 1619.345825,1425.332275 
	C1613.939453,1415.050049 1609.037842,1404.499146 1603.516113,1394.281738 
	C1597.420898,1383.003662 1590.595581,1372.117676 1584.585449,1360.796997 
	C1577.726440,1347.877686 1571.577148,1334.583252 1564.820068,1321.607788 
	C1558.462280,1309.399292 1551.715088,1297.393799 1545.138794,1285.299194 
	C1541.120972,1277.910400 1537.063599,1270.542969 1533.092285,1263.129395 
	C1524.516846,1247.121094 1516.034546,1231.062866 1507.422607,1215.074219 
	C1497.945801,1197.480103 1488.310669,1179.971191 1478.853882,1162.366455 
	C1473.581299,1152.550903 1468.572144,1142.594238 1463.368164,1132.741333 
	C1458.941406,1124.360474 1454.451660,1116.011841 1449.907593,1107.693970 
	C1443.344482,1095.679810 1436.764526,1083.674316 1430.079590,1071.727905 
	C1426.209595,1064.811768 1421.957275,1058.106934 1418.177246,1051.143921 
	C1414.857544,1045.028809 1412.075806,1038.623779 1408.843384,1032.458496 
	C1403.347290,1021.975830 1397.702515,1011.570923 1392.077759,1001.156250 
	C1390.762451,998.721252 1390.930420,996.924683 1393.424683,995.247620 
	C1399.738525,991.002625 1405.941772,986.592163 1412.156128,982.200989 
	C1422.994873,974.541992 1433.795776,966.829712 1444.636597,959.173889 
	C1453.041504,953.238220 1461.406738,947.238770 1469.994263,941.578186 
	C1471.224976,940.767090 1474.417114,940.958374 1475.334229,941.950195 
	C1484.527710,951.891296 1506.508057,953.883362 1518.959839,947.619324 
	C1525.284790,944.437378 1529.670532,939.695679 1533.598022,933.784241 
	C1537.265015,928.264832 1539.714233,922.665283 1540.124756,916.244080 
	C1541.134644,900.445251 1534.759888,887.775940 1521.567749,879.569092 
	C1509.895020,872.307495 1496.933838,871.977722 1484.480469,878.279419 
	C1480.650635,880.217407 1478.403809,879.703979 1476.013428,876.639771 
	C1472.187866,871.736084 1468.305176,866.876404 1464.405640,862.031128 
	C1458.748413,855.002014 1453.031738,848.020813 1447.382690,840.985168 
	C1440.808594,832.797058 1434.358154,824.508484 1427.714478,816.377625 
	C1416.401978,802.532898 1404.864746,788.870667 1393.643677,774.952881 
	C1385.471313,764.816406 1377.639893,754.404358 1369.687378,744.091370 
	C1364.774658,737.720276 1359.919800,731.304504 1354.833984,724.640198 
	C1364.017822,715.746582 1365.372681,704.656128 1365.365112,692.655457 
	C1365.357300,680.100647 1352.743896,664.151917 1340.399048,660.850098 
	C1325.541260,656.876160 1312.098389,658.197693 1300.164062,669.660522 
	C1292.971191,676.569397 1289.093628,684.752625 1288.066406,693.869995 
	C1286.431274,708.383545 1292.444580,720.320190 1304.219971,728.997498 
	C1306.957397,731.014648 1307.416870,733.230225 1306.484131,735.839539 
	C1303.234497,744.930542 1299.842285,753.973511 1296.336304,762.969238 
	C1292.524170,772.750793 1288.551392,782.470215 1284.566040,792.182800 
	C1284.157471,793.178406 1283.255127,794.567078 1282.454956,794.658020 
	C1281.416382,794.776184 1279.716675,794.079956 1279.221924,793.210510 
	C1274.123657,784.250549 1269.150513,775.217407 1264.270264,766.136047 
	C1261.378052,760.754028 1258.858887,755.169922 1255.922241,749.813538 
	C1243.569946,727.282104 1231.124146,704.801880 1218.711304,682.303528 
	C1212.569580,671.171326 1206.407593,660.050354 1200.286377,648.906860 
	C1189.635620,629.517395 1179.080566,610.075073 1168.338745,590.736267 
	C1163.884888,582.718018 1159.733765,574.393188 1154.224121,567.134460 
	C1147.196655,557.876099 1139.210327,549.289734 1131.140381,540.891235 
	C1117.299805,526.487244 1099.653320,517.973938 1081.290039,511.280762 
	C1062.763672,504.528046 1043.282227,501.940277 1023.565369,501.924713 
	C1018.345520,501.920593 1013.140747,503.524628 1007.901489,503.750122 
	C992.015320,504.433899 977.225098,509.259888 961.978271,515.463806 
z"/>
<path fill="#CBFE00" opacity="1.000000" stroke="none" 
	d="
M962.318481,515.274658 
	C977.225098,509.259888 992.015320,504.433899 1007.901489,503.750122 
	C1013.140747,503.524628 1018.345520,501.920593 1023.565369,501.924713 
	C1043.282227,501.940277 1062.763672,504.528046 1081.290039,511.280762 
	C1099.653320,517.973938 1117.299805,526.487244 1131.140381,540.891235 
	C1139.210327,549.289734 1147.196655,557.876099 1154.224121,567.134460 
	C1159.733765,574.393188 1163.884888,582.718018 1168.338745,590.736267 
	C1179.080566,610.075073 1189.635620,629.517395 1200.286377,648.906860 
	C1206.407593,660.050354 1212.569580,671.171326 1218.711304,682.303528 
	C1231.124146,704.801880 1243.569946,727.282104 1255.922241,749.813538 
	C1258.858887,755.169922 1261.378052,760.754028 1264.270264,766.136047 
	C1269.150513,775.217407 1274.123657,784.250549 1279.221924,793.210510 
	C1279.716675,794.079956 1281.416382,794.776184 1282.454956,794.658020 
	C1283.255127,794.567078 1284.157471,793.178406 1284.566040,792.182800 
	C1288.551392,782.470215 1292.524170,772.750793 1296.336304,762.969238 
	C1299.842285,753.973511 1303.234497,744.930542 1306.484131,735.839539 
	C1307.416870,733.230225 1306.957397,731.014648 1304.219971,728.997498 
	C1292.444580,720.320190 1286.431274,708.383545 1288.066406,693.869995 
	C1289.093628,684.752625 1292.971191,676.569397 1300.164062,669.660522 
	C1312.098389,658.197693 1325.541260,656.876160 1340.399048,660.850098 
	C1352.743896,664.151917 1365.357300,680.100647 1365.365112,692.655457 
	C1365.372681,704.656128 1364.017822,715.746582 1354.833984,724.640198 
	C1359.919800,731.304504 1364.774658,737.720276 1369.687378,744.091370 
	C1377.639893,754.404358 1385.471313,764.816406 1393.643677,774.952881 
	C1404.864746,788.870667 1416.401978,802.532898 1427.714478,816.377625 
	C1434.358154,824.508484 1440.808594,832.797058 1447.382690,840.985168 
	C1453.031738,848.020813 1458.748413,855.002014 1464.405640,862.031128 
	C1468.305176,866.876404 1472.187866,871.736084 1476.013428,876.639771 
	C1478.403809,879.703979 1480.650635,880.217407 1484.480469,878.279419 
	C1496.933838,871.977722 1509.895020,872.307495 1521.567749,879.569092 
	C1534.759888,887.775940 1541.134644,900.445251 1540.124756,916.244080 
	C1539.714233,922.665283 1537.265015,928.264832 1533.598022,933.784241 
	C1529.670532,939.695679 1525.284790,944.437378 1518.959839,947.619324 
	C1506.508057,953.883362 1484.527710,951.891296 1475.334229,941.950195 
	C1474.417114,940.958374 1471.224976,940.767090 1469.994263,941.578186 
	C1461.406738,947.238770 1453.041504,953.238220 1444.636597,959.173889 
	C1433.795776,966.829712 1422.994873,974.541992 1412.156128,982.200989 
	C1405.941772,986.592163 1399.738525,991.002625 1393.424683,995.247620 
	C1390.930420,996.924683 1390.762451,998.721252 1392.077759,1001.156250 
	C1397.702515,1011.570923 1403.347290,1021.975830 1408.843384,1032.458496 
	C1412.075806,1038.623779 1414.857544,1045.028809 1418.177246,1051.143921 
	C1421.957275,1058.106934 1426.209595,1064.811768 1430.079590,1071.727905 
	C1436.764526,1083.674316 1443.344482,1095.679810 1449.907593,1107.693970 
	C1454.451660,1116.011841 1458.941406,1124.360474 1463.368164,1132.741333 
	C1468.572144,1142.594238 1473.581299,1152.550903 1478.853882,1162.366455 
	C1488.310669,1179.971191 1497.945801,1197.480103 1507.422607,1215.074219 
	C1516.034546,1231.062866 1524.516846,1247.121094 1533.092285,1263.129395 
	C1537.063599,1270.542969 1541.120972,1277.910400 1545.138794,1285.299194 
	C1551.715088,1297.393799 1558.462280,1309.399292 1564.820068,1321.607788 
	C1571.577148,1334.583252 1577.726440,1347.877686 1584.585449,1360.796997 
	C1590.595581,1372.117676 1597.420898,1383.003662 1603.516113,1394.281738 
	C1609.037842,1404.499146 1613.939453,1415.050049 1619.345825,1425.332275 
	C1622.798462,1431.898926 1626.756592,1438.197876 1630.335571,1444.700806 
	C1634.555542,1452.368408 1637.104370,1460.439209 1636.207275,1469.394531 
	C1635.059204,1480.853760 1629.435913,1489.379761 1619.417603,1494.751709 
	C1612.806519,1498.296509 1605.545654,1499.286011 1597.958862,1499.257812 
	C1552.630127,1499.089355 1507.299072,1499.359253 1461.971191,1499.088013 
	C1442.489990,1498.971436 1424.203003,1493.890015 1408.080444,1482.551392 
	C1394.066406,1472.695679 1382.920776,1460.245483 1374.903931,1444.981934 
	C1368.761108,1433.286499 1362.230957,1421.794312 1355.841187,1410.229248 
	C1342.885010,1386.779297 1329.832275,1363.382446 1316.958984,1339.887085 
	C1304.019531,1316.271118 1291.326660,1292.520020 1278.375122,1268.910767 
	C1271.433838,1256.257324 1264.069946,1243.836182 1257.089722,1231.203613 
	C1250.182007,1218.701904 1243.576538,1206.033569 1236.723022,1193.501709 
	C1232.675049,1186.100098 1228.245361,1178.905396 1224.269531,1171.466797 
	C1218.584473,1160.829834 1213.214355,1150.025024 1207.589600,1139.355103 
	C1205.692261,1135.755981 1203.782349,1132.046387 1201.166626,1128.997925 
	C1200.055054,1127.702393 1196.791138,1127.062866 1195.054565,1127.677124 
	C1175.252441,1134.682739 1155.552246,1141.977051 1135.833862,1149.218384 
	C1125.032349,1153.184814 1114.201782,1157.081665 1103.508423,1161.322632 
	C1102.030518,1161.908813 1100.362427,1164.287354 1100.338867,1165.859131 
	C1100.254761,1171.463257 1101.277100,1177.092773 1101.079346,1182.684326 
	C1100.741455,1192.237549 1099.280762,1201.535156 1093.858398,1209.911377 
	C1090.064941,1215.771484 1087.067749,1222.147095 1083.325562,1229.006348 
	C1085.342041,1231.295044 1087.818848,1234.234985 1090.431274,1237.049072 
	C1103.976929,1251.640991 1117.614746,1266.147705 1131.105957,1280.789551 
	C1140.481567,1290.964722 1149.715210,1301.271484 1158.936035,1311.587646 
	C1177.131348,1331.944580 1195.141357,1352.468994 1213.499390,1372.677856 
	C1221.509766,1381.495728 1230.126465,1389.770020 1238.652832,1398.101929 
	C1239.572144,1399.000244 1242.158691,1399.370728 1243.243896,1398.737671 
	C1253.652222,1392.669556 1264.609863,1391.956909 1275.604004,1396.013794 
	C1280.171753,1397.699341 1284.254395,1401.122314 1288.057617,1404.345459 
	C1292.397583,1408.023682 1296.411499,1411.947632 1298.530151,1417.731201 
	C1303.383057,1430.978394 1302.524292,1443.590576 1294.290771,1454.892578 
	C1279.796753,1474.788208 1249.633423,1477.838013 1233.038574,1458.084106 
	C1225.263184,1448.828735 1219.656372,1437.887817 1224.520508,1424.923950 
	C1226.461670,1419.750610 1228.890381,1414.761597 1230.905884,1409.613770 
	C1231.375732,1408.413940 1231.615356,1406.562256 1231.012939,1405.609863 
	C1229.208130,1402.755737 1227.115723,1400.029663 1224.813843,1397.552612 
	C1210.503906,1382.154419 1196.079468,1366.862915 1181.746948,1351.485596 
	C1172.125977,1341.163452 1162.603149,1330.749756 1153.019165,1320.392944 
	C1144.381836,1311.058960 1135.675171,1301.788696 1127.082886,1292.413452 
	C1117.274536,1281.711304 1107.551270,1270.931152 1097.805664,1260.171509 
	C1091.670776,1253.398315 1085.645996,1246.523315 1079.413574,1239.841553 
	C1075.318848,1235.451660 1072.997681,1235.707275 1067.896118,1238.608643 
	C1061.335693,1242.339722 1054.661743,1247.335571 1047.557495,1248.316284 
	C1035.765869,1249.943970 1023.417908,1250.041260 1011.643860,1248.378662 
	C1004.349182,1247.348755 997.498657,1242.191528 990.795593,1238.291016 
	C986.140503,1235.582031 983.929382,1235.200928 980.093079,1239.329346 
	C974.768066,1245.059814 969.837280,1251.161011 964.435547,1256.814819 
	C956.230103,1265.403076 947.620056,1273.606689 939.471008,1282.246338 
	C935.342712,1286.623169 932.063721,1291.792358 928.024963,1296.263916 
	C916.615662,1308.895996 904.987732,1321.330200 893.491760,1333.884521 
	C879.532837,1349.128418 865.564331,1364.364258 851.710327,1379.703247 
	C843.727966,1388.541016 835.963562,1397.575684 828.629395,1405.920532 
	C831.447693,1413.022583 834.985291,1419.410278 836.508423,1426.246948 
	C841.179565,1447.213745 825.670898,1466.192261 807.235046,1470.130127 
	C789.327454,1473.955078 775.114746,1467.845703 764.746643,1452.964844 
	C762.828979,1450.212646 761.751892,1446.726685 760.879700,1443.422852 
	C758.500427,1434.410645 757.545166,1433.922119 748.470032,1432.080933 
	C736.606201,1429.674194 724.904724,1426.468384 713.129944,1423.620117 
	C708.346680,1422.463135 703.579285,1421.218140 698.755249,1420.262573 
	C696.656494,1419.846924 695.253479,1420.265015 693.837646,1422.885376 
	C686.928284,1435.674072 680.290894,1448.754639 671.922913,1460.575073 
	C660.459229,1476.768433 645.108582,1488.849487 625.595825,1494.055298 
	C615.525696,1496.742065 604.962830,1498.837891 594.598206,1498.949829 
	C547.274414,1499.461060 499.941956,1499.202759 452.612671,1499.152344 
	C442.201141,1499.141235 432.728729,1496.462524 424.610931,1489.406738 
	C418.454956,1484.055908 412.060486,1468.833008 415.817871,1460.174316 
	C419.207092,1452.363770 422.744171,1444.610229 426.467072,1436.953613 
	C431.486847,1426.629517 436.576294,1416.331787 441.958954,1406.194336 
	C446.094025,1398.406616 450.862000,1390.957275 455.099884,1383.221313 
	C458.761505,1376.537231 461.914612,1369.574829 465.572571,1362.888550 
	C473.048920,1349.222778 480.893158,1335.756104 488.244751,1322.024780 
	C494.284851,1310.743164 499.660065,1299.106812 505.638275,1287.790527 
	C514.272827,1271.446167 523.188110,1255.250366 531.979736,1238.989136 
	C540.675781,1222.904297 549.348572,1206.806763 558.064758,1190.732910 
	C572.731506,1163.685425 587.436401,1136.658569 602.100220,1109.609497 
	C607.177429,1100.244019 612.094299,1090.790894 617.238525,1081.462769 
	C624.072021,1069.071655 631.125854,1056.802124 637.946899,1044.404541 
	C641.411133,1038.108032 644.441345,1031.572754 647.904663,1025.275757 
	C652.141296,1017.573059 656.724731,1010.060852 660.943665,1002.348877 
	C662.203735,1000.045532 662.729553,997.780945 659.568787,995.668030 
	C649.700012,989.070618 640.192932,981.934937 630.392090,975.232422 
	C616.930725,966.026611 603.327637,957.028198 589.788391,947.936279 
	C587.860657,946.641785 585.679260,945.587036 584.085754,943.960449 
	C580.245728,940.040710 576.723877,943.275208 574.702637,945.266296 
	C566.614258,953.234009 556.534912,954.123474 546.591614,952.876282 
	C528.930481,950.661133 517.200134,940.427612 513.486633,922.748108 
	C511.737030,914.418823 512.728516,906.294434 516.912781,897.960327 
	C522.625122,886.582703 531.491699,879.865356 542.890686,877.302551 
	C551.018066,875.475342 560.127747,875.388855 568.075439,879.821045 
	C571.053101,881.481567 573.032776,880.881226 575.026184,878.618408 
	C580.527649,872.373474 586.047485,866.144653 591.520630,859.875061 
	C595.061523,855.818909 598.540710,851.708618 602.033997,847.611084 
	C608.207336,840.369690 614.312988,833.069580 620.558838,825.891357 
	C624.481140,821.383667 628.734314,817.161438 632.608154,812.614441 
	C636.791382,807.704285 640.546509,802.426453 644.780457,797.563354 
	C649.295471,792.377380 654.286499,787.606201 658.813171,782.429688 
	C661.908508,778.890076 664.384399,774.811646 667.448914,771.241699 
	C679.127441,757.637024 690.929749,744.138550 702.698303,730.611206 
	C703.320129,729.896484 703.948425,729.069824 704.758057,728.655945 
	C708.718140,726.631714 708.507507,724.068542 706.413696,720.635803 
	C701.815552,713.097595 698.266052,705.108582 698.852356,695.992554 
	C699.936279,679.138855 711.230469,663.165344 729.499573,659.682434 
	C747.874084,656.179443 761.905945,662.354858 771.609070,677.605591 
	C779.254089,689.621460 779.066345,712.830811 765.040222,723.656921 
	C762.347839,725.735168 760.178589,728.478271 757.593384,730.712585 
	C755.584473,732.448669 755.123596,734.047241 756.088806,736.696838 
	C761.687439,752.065002 767.062439,767.514771 772.502625,782.940552 
	C773.077454,784.570557 773.585205,786.224121 774.124084,787.866760 
	C774.885376,788.441040 775.646667,789.015320 776.407959,789.589600 
	C777.175964,787.913147 777.819092,786.165161 778.732239,784.571899 
	C784.610168,774.316895 790.737488,764.199768 796.405396,753.830994 
	C801.053772,745.327454 804.933716,736.403015 809.603394,727.912109 
	C814.417542,719.158447 819.963501,710.808655 824.825562,702.079529 
	C827.890015,696.577881 830.109436,690.611267 833.040344,685.027710 
	C835.271118,680.778076 838.102905,676.848083 840.514954,672.687500 
	C841.799500,670.471802 842.614014,667.984009 843.894043,665.765137 
	C848.712097,657.413818 853.802429,649.215515 858.463806,640.779175 
	C862.197021,634.022644 865.305054,626.923035 868.956909,620.118652 
	C876.961365,605.204163 884.396667,589.912659 893.438354,575.645813 
	C903.319519,560.054138 914.462646,545.128784 930.049561,534.496460 
	C938.803955,528.524902 947.937500,523.105713 956.959106,517.533081 
	C958.478516,516.594543 960.297668,516.141296 962.318481,515.274658 
M1379.851807,776.621643 
	C1369.429443,763.475769 1358.926514,750.392273 1348.653931,737.130371 
	C1346.648438,734.541199 1344.919678,734.501465 1341.969482,735.154663 
	C1336.043945,736.466431 1329.889771,737.977112 1323.949097,737.587769 
	C1319.444824,737.292664 1317.977173,738.469666 1316.478760,742.207825 
	C1303.484741,774.625671 1290.458130,807.031982 1277.168213,839.329407 
	C1265.751831,867.074036 1250.183472,892.211914 1230.185059,914.740417 
	C1200.692871,947.963745 1164.670044,970.119507 1121.697510,981.169312 
	C1118.759033,981.924866 1117.271851,981.429077 1115.794922,978.662720 
	C1107.412476,962.962830 1098.818604,947.375793 1090.300903,931.748169 
	C1077.883911,908.966492 1065.684570,886.062805 1052.987915,863.438171 
	C1042.779663,845.247864 1020.639404,845.121033 1010.410950,863.101868 
	C991.325806,896.652283 972.462402,930.329102 953.566650,963.986877 
	C930.434570,1005.190552 907.351807,1046.421875 884.276794,1087.657593 
	C879.277283,1096.591797 874.401550,1105.595215 869.157715,1115.132568 
	C900.615234,1127.064209 931.310852,1138.707031 961.908264,1150.312500 
	C980.732605,1115.784058 1009.020752,1101.682983 1047.745728,1108.504517 
	C1052.899414,1093.525391 1057.762817,1078.330078 1063.380493,1063.418823 
	C1067.407593,1052.729370 1071.713867,1042.020630 1077.182495,1032.024414 
	C1088.474487,1011.383789 1106.348755,998.706360 1128.970215,992.812378 
	C1145.471191,988.513184 1161.354614,982.674866 1176.350952,974.596008 
	C1201.056396,961.286621 1222.611328,943.950928 1241.177002,922.912354 
	C1261.613525,899.753723 1277.511230,873.751282 1289.637085,845.391968 
	C1292.389526,838.954956 1295.197754,832.541931 1298.472168,824.981873 
	C1327.968384,879.323059 1356.794800,932.430176 1385.877930,986.010376 
	C1412.653931,967.156372 1438.571655,948.906799 1464.573975,930.597595 
	C1459.173706,919.227173 1457.998901,907.388245 1464.307739,897.511230 
	C1470.317017,888.102905 1466.392456,882.954346 1460.566772,876.959656 
	C1459.524780,875.887390 1458.462524,874.822266 1457.530273,873.657227 
	C1431.791260,841.491943 1406.067749,809.314087 1379.851807,776.621643 
M844.097778,1159.575317 
	C835.234863,1175.393066 826.382935,1191.216919 817.507263,1207.027588 
	C785.180481,1264.612915 752.826965,1322.183350 720.531982,1379.786621 
	C715.108948,1389.459473 709.926514,1399.267212 704.532288,1409.197876 
	C705.498901,1409.675171 706.038330,1410.074219 706.639038,1410.218872 
	C722.615479,1414.065186 738.600281,1417.877075 754.577881,1421.718628 
	C757.137207,1422.333862 758.310791,1421.480225 759.343079,1418.903076 
	C768.751709,1395.412598 793.040833,1385.424561 815.836060,1395.721680 
	C818.791260,1397.056641 820.332581,1396.340332 822.211792,1394.283081 
	C830.956848,1384.709351 839.838196,1375.259644 848.563171,1365.667603 
	C867.901123,1344.407715 887.146179,1323.063477 906.482056,1301.801636 
	C928.072205,1278.061035 949.695435,1254.350220 971.390564,1230.705688 
	C973.207336,1228.725708 973.439575,1227.430298 971.749512,1225.243286 
	C958.434753,1208.012817 953.213257,1188.700073 957.411926,1167.154297 
	C957.950562,1164.390137 957.136902,1163.391357 954.643188,1162.465942 
	C925.033875,1151.478394 895.446228,1140.430786 865.918396,1129.226685 
	C862.768921,1128.031494 861.227539,1128.416504 859.630981,1131.415649 
	C854.709595,1140.660400 849.510803,1149.757568 844.097778,1159.575317 
M704.194885,917.763916 
	C706.988159,912.460876 709.713684,907.120911 712.585693,901.860840 
	C729.956970,870.044983 747.404907,838.270813 764.646545,806.384949 
	C765.666016,804.499390 765.855835,801.520142 765.175232,799.466187 
	C761.046082,787.004150 756.484863,774.686157 752.203430,762.273376 
	C749.395996,754.133911 746.817017,745.915771 744.130737,737.717651 
	C735.430908,738.629517 727.516174,737.561829 719.878235,734.118408 
	C718.587524,733.536621 715.841919,734.045044 714.931702,735.076355 
	C700.968201,750.897461 687.196960,766.888184 673.382629,782.840820 
	C655.006653,804.061279 636.583923,825.241516 618.274963,846.519592 
	C607.016113,859.604187 595.984497,872.884277 584.719055,885.963074 
	C582.799194,888.192017 583.036377,889.543091 584.647095,891.874023 
	C592.285889,902.928589 594.380737,915.030945 590.055115,927.868774 
	C588.922974,931.228577 589.684631,932.853943 592.505798,934.723145 
	C602.347473,941.244141 611.999207,948.051575 621.730408,954.739502 
	C636.625427,964.976318 651.526489,975.204163 666.965637,985.807190 
	C679.456848,962.955444 691.635681,940.675049 704.194885,917.763916 
M1093.333862,1143.245239 
	C1094.618042,1145.729858 1095.902222,1148.214600 1097.245605,1150.813721 
	C1128.656494,1139.101074 1159.848511,1127.470215 1191.504272,1115.666260 
	C1185.103638,1104.017700 1179.102295,1093.115601 1173.119385,1082.203369 
	C1160.011353,1058.295898 1146.854980,1034.414795 1133.884033,1010.433350 
	C1132.271973,1007.453064 1130.864502,1007.004395 1127.667847,1007.999756 
	C1109.300781,1013.717957 1095.757202,1025.309692 1087.565918,1042.394409 
	C1081.549194,1054.943726 1076.979004,1068.207520 1072.126831,1081.287476 
	C1068.210327,1091.845337 1064.835815,1102.604248 1061.143921,1113.500977 
	C1074.852783,1120.186890 1085.129150,1130.108521 1093.333862,1143.245239 
z"/>
<path fill="#010201" opacity="1.000000" stroke="none" 
	d="
M1380.096680,776.880005 
	C1406.067749,809.314087 1431.791260,841.491943 1457.530273,873.657227 
	C1458.462524,874.822266 1459.524780,875.887390 1460.566772,876.959656 
	C1466.392456,882.954346 1470.317017,888.102905 1464.307739,897.511230 
	C1457.998901,907.388245 1459.173706,919.227173 1464.573975,930.597595 
	C1438.571655,948.906799 1412.653931,967.156372 1385.877930,986.010376 
	C1356.794800,932.430176 1327.968384,879.323059 1298.472168,824.981873 
	C1295.197754,832.541931 1292.389526,838.954956 1289.637085,845.391968 
	C1277.511230,873.751282 1261.613525,899.753723 1241.177002,922.912354 
	C1222.611328,943.950928 1201.056396,961.286621 1176.350952,974.596008 
	C1161.354614,982.674866 1145.471191,988.513184 1128.970215,992.812378 
	C1106.348755,998.706360 1088.474487,1011.383789 1077.182495,1032.024414 
	C1071.713867,1042.020630 1067.407593,1052.729370 1063.380493,1063.418823 
	C1057.762817,1078.330078 1052.899414,1093.525391 1047.745728,1108.504517 
	C1009.020752,1101.682983 980.732605,1115.784058 961.908264,1150.312500 
	C931.310852,1138.707031 900.615234,1127.064209 869.157715,1115.132568 
	C874.401550,1105.595215 879.277283,1096.591797 884.276794,1087.657593 
	C907.351807,1046.421875 930.434570,1005.190552 953.566650,963.986877 
	C972.462402,930.329102 991.325806,896.652283 1010.410950,863.101868 
	C1020.639404,845.121033 1042.779663,845.247864 1052.987915,863.438171 
	C1065.684570,886.062805 1077.883911,908.966492 1090.300903,931.748169 
	C1098.818604,947.375793 1107.412476,962.962830 1115.794922,978.662720 
	C1117.271851,981.429077 1118.759033,981.924866 1121.697510,981.169312 
	C1164.670044,970.119507 1200.692871,947.963745 1230.185059,914.740417 
	C1250.183472,892.211914 1265.751831,867.074036 1277.168213,839.329407 
	C1290.458130,807.031982 1303.484741,774.625671 1316.478760,742.207825 
	C1317.977173,738.469666 1319.444824,737.292664 1323.949097,737.587769 
	C1329.889771,737.977112 1336.043945,736.466431 1341.969482,735.154663 
	C1344.919678,734.501465 1346.648438,734.541199 1348.653931,737.130371 
	C1358.926514,750.392273 1369.429443,763.475769 1380.096680,776.880005 
z"/>
<path fill="#010100" opacity="1.000000" stroke="none" 
	d="
M844.258789,1159.243652 
	C849.510803,1149.757568 854.709595,1140.660400 859.630981,1131.415649 
	C861.227539,1128.416504 862.768921,1128.031494 865.918396,1129.226685 
	C895.446228,1140.430786 925.033875,1151.478394 954.643188,1162.465942 
	C957.136902,1163.391357 957.950562,1164.390137 957.411926,1167.154297 
	C953.213257,1188.700073 958.434753,1208.012817 971.749512,1225.243286 
	C973.439575,1227.430298 973.207336,1228.725708 971.390564,1230.705688 
	C949.695435,1254.350220 928.072205,1278.061035 906.482056,1301.801636 
	C887.146179,1323.063477 867.901123,1344.407715 848.563171,1365.667603 
	C839.838196,1375.259644 830.956848,1384.709351 822.211792,1394.283081 
	C820.332581,1396.340332 818.791260,1397.056641 815.836060,1395.721680 
	C793.040833,1385.424561 768.751709,1395.412598 759.343079,1418.903076 
	C758.310791,1421.480225 757.137207,1422.333862 754.577881,1421.718628 
	C738.600281,1417.877075 722.615479,1414.065186 706.639038,1410.218872 
	C706.038330,1410.074219 705.498901,1409.675171 704.532288,1409.197876 
	C709.926514,1399.267212 715.108948,1389.459473 720.531982,1379.786621 
	C752.826965,1322.183350 785.180481,1264.612915 817.507263,1207.027588 
	C826.382935,1191.216919 835.234863,1175.393066 844.258789,1159.243652 
z"/>
<path fill="#010100" opacity="1.000000" stroke="none" 
	d="
M704.004761,918.079285 
	C691.635681,940.675049 679.456848,962.955444 666.965637,985.807190 
	C651.526489,975.204163 636.625427,964.976318 621.730408,954.739502 
	C611.999207,948.051575 602.347473,941.244141 592.505798,934.723145 
	C589.684631,932.853943 588.922974,931.228577 590.055115,927.868774 
	C594.380737,915.030945 592.285889,902.928589 584.647095,891.874023 
	C583.036377,889.543091 582.799194,888.192017 584.719055,885.963074 
	C595.984497,872.884277 607.016113,859.604187 618.274963,846.519592 
	C636.583923,825.241516 655.006653,804.061279 673.382629,782.840820 
	C687.196960,766.888184 700.968201,750.897461 714.931702,735.076355 
	C715.841919,734.045044 718.587524,733.536621 719.878235,734.118408 
	C727.516174,737.561829 735.430908,738.629517 744.130737,737.717651 
	C746.817017,745.915771 749.395996,754.133911 752.203430,762.273376 
	C756.484863,774.686157 761.046082,787.004150 765.175232,799.466187 
	C765.855835,801.520142 765.666016,804.499390 764.646545,806.384949 
	C747.404907,838.270813 729.956970,870.044983 712.585693,901.860840 
	C709.713684,907.120911 706.988159,912.460876 704.004761,918.079285 
z"/>
<path fill="#010200" opacity="1.000000" stroke="none" 
	d="
M1093.188477,1142.909424 
	C1085.129150,1130.108521 1074.852783,1120.186890 1061.143921,1113.500977 
	C1064.835815,1102.604248 1068.210327,1091.845337 1072.126831,1081.287476 
	C1076.979004,1068.207520 1081.549194,1054.943726 1087.565918,1042.394409 
	C1095.757202,1025.309692 1109.300781,1013.717957 1127.667847,1007.999756 
	C1130.864502,1007.004395 1132.271973,1007.453064 1133.884033,1010.433350 
	C1146.854980,1034.414795 1160.011353,1058.295898 1173.119385,1082.203369 
	C1179.102295,1093.115601 1185.103638,1104.017700 1191.504272,1115.666260 
	C1159.848511,1127.470215 1128.656494,1139.101074 1097.245605,1150.813721 
	C1095.902222,1148.214600 1094.618042,1145.729858 1093.188477,1142.909424 
z"/>
</svg>