<svg xmlns="http://www.w3.org/2000/svg" viewBox="0 0 512 512" width="512" height="512">
  <!-- Hard square: platforms (GitHub squircle, catalog cards) clip avatars themselves;
       pre-rounded marks show double rounding. Wordmark is outlined paths (no font dependency). -->
  <rect width="512" height="512" fill="#161616"/>
  <path d="M256 352 C 256 352 128 270 128 186 C 128 140 164 108 208 108 C 232 108 250 122 256 142 C 262 122 280 108 304 108 C 348 108 384 140 384 186 C 384 270 256 352 256 352 Z" fill="#e10600"/>
  <g transform="translate(140.4,438)" fill="#ececec"><path d="M5.4 -38.5 L5.4 -46.7 L33.2 -46.7 L33.2 -38.5 L23.9 -38.5 L23.9 -8.1 L33.2 -8.1 L33.2 -0.0 L5.4 -0.0 L5.4 -8.1 L14.7 -8.1 L14.7 -38.5 L5.4 -38.5 Z M54.5 -20.5 Q47.5 -23.1 45.0 -26.1 Q42.6 -29.0 42.6 -33.9 Q42.6 -40.2 46.6 -43.9 Q50.7 -47.5 57.8 -47.5 Q61.0 -47.5 64.2 -46.8 Q67.4 -46.0 70.6 -44.6 L70.6 -35.6 Q67.6 -37.7 64.6 -38.8 Q61.5 -39.9 58.5 -39.9 Q55.2 -39.9 53.4 -38.5 Q51.6 -37.2 51.6 -34.7 Q51.6 -32.8 52.9 -31.5 Q54.2 -30.2 58.3 -28.7 L62.3 -27.2 Q67.9 -25.1 70.6 -21.7 Q73.2 -18.3 73.2 -13.1 Q73.2 -6.1 69.0 -2.6 Q64.9 0.9 56.4 0.9 Q53.0 0.9 49.5 0.1 Q46.0 -0.8 42.8 -2.4 L42.8 -11.9 Q46.4 -9.3 49.9 -8.0 Q53.3 -6.7 56.7 -6.7 Q60.1 -6.7 62.0 -8.3 Q63.9 -9.8 63.9 -12.6 Q63.9 -14.7 62.6 -16.3 Q61.4 -17.8 59.0 -18.8 L54.5 -20.5 Z M81.3 -46.7 L90.6 -46.7 L90.6 -28.9 L102.1 -28.9 L102.1 -46.7 L111.3 -46.7 L111.3 -0.0 L102.1 -0.0 L102.1 -20.8 L90.6 -20.8 L90.6 -0.0 L81.3 -0.0 L81.3 -46.7 Z M139.5 -0.0 L130.3 -0.0 L130.3 -38.6 L118.4 -38.6 L118.4 -46.7 L151.3 -46.7 L151.3 -38.6 L139.5 -38.6 L139.5 -0.0 Z M173.4 -38.2 L169.0 -19.1 L177.8 -19.1 L173.4 -38.2 Z M167.8 -46.7 L179.0 -46.7 L191.6 -0.0 L182.4 -0.0 L179.5 -11.5 L167.2 -11.5 L164.4 -0.0 L155.2 -0.0 L167.8 -46.7 Z M217.9 -22.0 Q219.2 -21.8 220.3 -20.7 Q221.3 -19.7 222.7 -16.8 L231.2 -0.0 L221.1 -0.0 L215.4 -11.8 Q215.2 -12.3 214.8 -13.2 Q212.3 -18.4 209.0 -18.4 L206.0 -18.4 L206.0 -0.0 L196.8 -0.0 L196.8 -46.7 L210.1 -46.7 Q219.1 -46.7 223.0 -43.5 Q227.0 -40.3 227.0 -33.1 Q227.0 -28.3 224.6 -25.4 Q222.3 -22.6 217.9 -22.0 Z M206.0 -38.9 L206.0 -26.2 L210.4 -26.2 Q214.2 -26.2 215.8 -27.7 Q217.4 -29.2 217.4 -32.6 Q217.4 -36.0 215.8 -37.4 Q214.2 -38.9 210.4 -38.9 L206.0 -38.9 Z"/></g>
</svg>
