<?xml version="1.0" standalone="no"?>
<!DOCTYPE svg PUBLIC "-//W3C//DTD SVG 20010904//EN"
 "http://www.w3.org/TR/2001/REC-SVG-20010904/DTD/svg10.dtd">
<svg version="1.0" xmlns="http://www.w3.org/2000/svg"
 width="743.000000pt" height="752.000000pt" viewBox="0 0 743.000000 752.000000"
 preserveAspectRatio="xMidYMid meet">
<metadata>
Created by potrace 1.16, written by Peter Selinger 2001-2019
</metadata>
<g transform="translate(0.000000,752.000000) scale(0.100000,-0.100000)"
fill="#000000" stroke="none">
<path d="M0 3760 l0 -3760 3715 0 3715 0 0 3760 0 3760 -3715 0 -3715 0 0
-3760z m3872 2832 c522 -324 1019 -544 1538 -681 226 -60 541 -114 745 -129
l100 -7 0 -1070 c0 -1066 0 -1071 -23 -1219 -80 -521 -283 -981 -618 -1401
-117 -147 -358 -386 -524 -519 -238 -190 -460 -331 -745 -474 -225 -113 -572
-255 -619 -254 -30 1 -278 98 -447 176 -493 227 -879 494 -1229 852 -438 449
-707 964 -804 1544 -44 261 -47 363 -44 1395 l3 970 60 3 c179 7 501 60 750
123 518 131 1116 396 1616 717 51 33 95 61 96 61 1 1 67 -39 145 -87z"/>
<path d="M3590 6088 c-174 -103 -591 -309 -790 -388 -355 -143 -674 -235
-1015 -294 l-130 -23 -3 -786 -2 -787 339 0 339 0 27 -32 c15 -18 129 -144
254 -280 l226 -248 190 3 190 2 4 30 c1 17 0 99 -4 183 l-7 152 -43 0 c-53 0
-103 16 -134 44 -50 45 -51 52 -51 543 0 416 2 461 18 492 24 49 64 75 125 81
l52 5 5 200 c6 188 8 204 33 271 57 145 184 269 330 323 77 29 226 39 310 21
151 -31 301 -149 371 -290 48 -98 65 -198 66 -382 l0 -148 43 0 c51 0 100 -28
127 -72 19 -32 20 -52 20 -502 0 -457 -1 -469 -21 -506 -28 -50 -69 -71 -145
-78 l-64 -5 2 -165 3 -165 274 -159 c237 -137 276 -157 290 -145 46 38 138 49
189 23 27 -14 29 -13 135 87 l108 102 -1 173 c0 169 0 173 -22 181 -55 21
-102 88 -114 158 -12 78 36 172 107 209 l29 14 2 195 3 195 275 4 c151 3 279
5 283 5 11 1 7 1022 -5 1044 -5 9 -19 17 -32 17 -36 0 -317 58 -461 95 -484
125 -1033 355 -1444 604 -73 45 -136 81 -140 80 -3 0 -67 -36 -141 -81z"/>
<path d="M3647 5400 c-98 -25 -190 -102 -235 -198 -26 -55 -27 -63 -27 -237
l0 -180 348 -3 349 -2 -4 187 c-4 212 -11 238 -89 327 -77 87 -229 134 -342
106z"/>
<path d="M3654 4481 c-101 -62 -119 -185 -39 -266 l35 -34 -25 -122 c-14 -67
-25 -130 -25 -140 0 -18 10 -19 135 -19 74 0 135 3 135 8 0 4 -13 66 -29 139
l-28 132 29 28 c41 39 58 75 58 123 0 95 -73 170 -164 170 -32 0 -62 -7 -82
-19z"/>
<path d="M5395 4170 c-8 -12 -4 -227 4 -237 3 -5 19 -15 35 -23 16 -8 43 -34
60 -58 l30 -43 146 3 145 3 0 180 0 180 -207 3 c-134 1 -209 -1 -213 -8z"/>
<path d="M1664 3593 c20 -192 87 -446 168 -634 l54 -124 435 -3 435 -2 125
-106 c95 -81 129 -103 144 -99 54 17 100 22 141 14 25 -5 52 -5 58 -1 7 4 108
94 224 201 l212 194 0 294 0 294 -147 -3 -148 -3 -3 -257 -2 -258 -294 0 -294
0 -248 271 c-137 149 -250 275 -252 280 -2 5 -141 9 -309 9 l-306 0 7 -67z"/>
<path d="M5499 3623 c-13 -21 -43 -50 -66 -66 l-43 -28 0 -204 0 -203 -127
-118 -127 -118 -2 -71 c-1 -38 -4 -80 -6 -91 -2 -15 27 -58 101 -148 57 -69
108 -126 113 -126 18 0 151 219 228 375 134 272 192 466 235 788 l6 47 -144 0
-144 0 -24 -37z"/>
<path d="M3810 3300 l0 -321 -37 -38 c-43 -44 -283 -265 -386 -355 -67 -59
-74 -74 -61 -123 5 -17 26 -28 102 -53 54 -18 105 -37 115 -42 14 -7 27 -2 57
26 50 45 110 62 170 48 l45 -11 190 189 190 189 240 26 c132 15 242 28 243 30
2 2 -7 10 -20 18 -24 15 -383 222 -495 286 l-63 35 0 208 0 208 -145 0 -145 0
0 -320z"/>
<path d="M4625 2709 c-27 -4 -122 -15 -210 -24 l-160 -15 -163 -168 c-147
-152 -162 -170 -157 -196 3 -16 5 -48 5 -71 0 -42 1 -44 66 -85 l67 -42 41 23
c31 18 56 23 106 22 l65 0 96 116 c53 64 156 187 228 273 72 87 131 162 131
168 0 11 -43 11 -115 -1z"/>
<path d="M1975 2679 c-6 -8 107 -179 189 -287 80 -106 245 -289 314 -347 l43
-37 92 85 c50 46 136 123 189 170 53 48 100 92 104 99 4 6 7 41 7 77 l0 65
-104 88 -104 87 -195 1 c-107 0 -271 1 -363 2 -93 2 -170 1 -172 -3z"/>
<path d="M4621 2328 c-218 -262 -232 -282 -222 -305 18 -38 13 -129 -8 -171
-38 -74 -108 -116 -191 -116 -66 1 -104 19 -153 73 -39 44 -47 63 -50 130 -2
42 -4 45 -68 86 -65 42 -67 43 -92 27 l-26 -17 -4 -353 c-2 -194 0 -355 4
-357 11 -8 229 88 394 174 221 114 394 226 607 391 101 79 428 402 428 423 0
8 -39 64 -87 124 -152 189 -128 170 -219 170 l-79 0 -234 -279z"/>
<path d="M3259 2283 c-40 -47 -161 -68 -221 -37 l-31 16 -76 -74 c-42 -41
-124 -118 -183 -172 -60 -54 -108 -102 -108 -107 0 -23 320 -243 510 -351 145
-83 475 -238 505 -238 3 0 5 162 5 359 0 346 -1 360 -19 366 -37 11 -101 86
-112 131 -6 23 -18 46 -28 49 -64 26 -204 75 -215 75 -8 0 -20 -7 -27 -17z"/>
</g>
</svg>
